<?xml version="1.0" encoding="UTF-8"?>
<svg xmlns="http://www.w3.org/2000/svg" xmlns:xlink="http://www.w3.org/1999/xlink" viewBox="0 0 360.00 216.00">
<defs>
  <style type="text/css"><![CDATA[
    line, polyline, path, rect, circle {
      fill: none;
      stroke: #000000;
      stroke-linecap: round;
      stroke-linejoin: round;
      stroke-miterlimit: 10.00;
    }
  ]]></style>
</defs>
<rect width="100%" height="100%" style="stroke: none; fill: #FFFFFF;"/>
<rect x="0.00" y="0.00" width="360.00" height="216.00" style="stroke-width: 1.07; stroke: #FFFFFF; fill: #FFFFFF;"/>
<defs>
  <clipPath id="cpNDAuNzkyMXwzNTQuNTIxfDE4My4zOTZ8NS40Nzk0NQ==">
    <rect x="40.79" y="5.48" width="313.73" height="177.92"/>
  </clipPath>
</defs>
<rect x="40.79" y="5.48" width="313.73" height="177.92" style="stroke-width: 1.07; stroke: none; fill: #EBEBEB;" clip-path="url(#cpNDAuNzkyMXwzNTQuNTIxfDE4My4zOTZ8NS40Nzk0NQ==)"/>
<polyline points="40.79,159.19 354.52,159.19 " style="stroke-width: 0.53; stroke: #FFFFFF; stroke-linecap: butt;" clip-path="url(#cpNDAuNzkyMXwzNTQuNTIxfDE4My4zOTZ8NS40Nzk0NQ==)"/>
<polyline points="40.79,126.96 354.52,126.96 " style="stroke-width: 0.53; stroke: #FFFFFF; stroke-linecap: butt;" clip-path="url(#cpNDAuNzkyMXwzNTQuNTIxfDE4My4zOTZ8NS40Nzk0NQ==)"/>
<polyline points="40.79,94.73 354.52,94.73 " style="stroke-width: 0.53; stroke: #FFFFFF; stroke-linecap: butt;" clip-path="url(#cpNDAuNzkyMXwzNTQuNTIxfDE4My4zOTZ8NS40Nzk0NQ==)"/>
<polyline points="40.79,62.50 354.52,62.50 " style="stroke-width: 0.53; stroke: #FFFFFF; stroke-linecap: butt;" clip-path="url(#cpNDAuNzkyMXwzNTQuNTIxfDE4My4zOTZ8NS40Nzk0NQ==)"/>
<polyline points="40.79,30.27 354.52,30.27 " style="stroke-width: 0.53; stroke: #FFFFFF; stroke-linecap: butt;" clip-path="url(#cpNDAuNzkyMXwzNTQuNTIxfDE4My4zOTZ8NS40Nzk0NQ==)"/>
<polyline points="83.57,183.40 83.57,5.48 " style="stroke-width: 0.53; stroke: #FFFFFF; stroke-linecap: butt;" clip-path="url(#cpNDAuNzkyMXwzNTQuNTIxfDE4My4zOTZ8NS40Nzk0NQ==)"/>
<polyline points="140.61,183.40 140.61,5.48 " style="stroke-width: 0.53; stroke: #FFFFFF; stroke-linecap: butt;" clip-path="url(#cpNDAuNzkyMXwzNTQuNTIxfDE4My4zOTZ8NS40Nzk0NQ==)"/>
<polyline points="197.66,183.40 197.66,5.48 " style="stroke-width: 0.53; stroke: #FFFFFF; stroke-linecap: butt;" clip-path="url(#cpNDAuNzkyMXwzNTQuNTIxfDE4My4zOTZ8NS40Nzk0NQ==)"/>
<polyline points="254.70,183.40 254.70,5.48 " style="stroke-width: 0.53; stroke: #FFFFFF; stroke-linecap: butt;" clip-path="url(#cpNDAuNzkyMXwzNTQuNTIxfDE4My4zOTZ8NS40Nzk0NQ==)"/>
<polyline points="311.74,183.40 311.74,5.48 " style="stroke-width: 0.53; stroke: #FFFFFF; stroke-linecap: butt;" clip-path="url(#cpNDAuNzkyMXwzNTQuNTIxfDE4My4zOTZ8NS40Nzk0NQ==)"/>
<polyline points="40.79,175.31 354.52,175.31 " style="stroke-width: 1.07; stroke: #FFFFFF; stroke-linecap: butt;" clip-path="url(#cpNDAuNzkyMXwzNTQuNTIxfDE4My4zOTZ8NS40Nzk0NQ==)"/>
<polyline points="40.79,143.08 354.52,143.08 " style="stroke-width: 1.07; stroke: #FFFFFF; stroke-linecap: butt;" clip-path="url(#cpNDAuNzkyMXwzNTQuNTIxfDE4My4zOTZ8NS40Nzk0NQ==)"/>
<polyline points="40.79,110.85 354.52,110.85 " style="stroke-width: 1.07; stroke: #FFFFFF; stroke-linecap: butt;" clip-path="url(#cpNDAuNzkyMXwzNTQuNTIxfDE4My4zOTZ8NS40Nzk0NQ==)"/>
<polyline points="40.79,78.61 354.52,78.61 " style="stroke-width: 1.07; stroke: #FFFFFF; stroke-linecap: butt;" clip-path="url(#cpNDAuNzkyMXwzNTQuNTIxfDE4My4zOTZ8NS40Nzk0NQ==)"/>
<polyline points="40.79,46.38 354.52,46.38 " style="stroke-width: 1.07; stroke: #FFFFFF; stroke-linecap: butt;" clip-path="url(#cpNDAuNzkyMXwzNTQuNTIxfDE4My4zOTZ8NS40Nzk0NQ==)"/>
<polyline points="40.79,14.15 354.52,14.15 " style="stroke-width: 1.07; stroke: #FFFFFF; stroke-linecap: butt;" clip-path="url(#cpNDAuNzkyMXwzNTQuNTIxfDE4My4zOTZ8NS40Nzk0NQ==)"/>
<polyline points="55.05,183.40 55.05,5.48 " style="stroke-width: 1.07; stroke: #FFFFFF; stroke-linecap: butt;" clip-path="url(#cpNDAuNzkyMXwzNTQuNTIxfDE4My4zOTZ8NS40Nzk0NQ==)"/>
<polyline points="112.09,183.40 112.09,5.48 " style="stroke-width: 1.07; stroke: #FFFFFF; stroke-linecap: butt;" clip-path="url(#cpNDAuNzkyMXwzNTQuNTIxfDE4My4zOTZ8NS40Nzk0NQ==)"/>
<polyline points="169.14,183.40 169.14,5.48 " style="stroke-width: 1.07; stroke: #FFFFFF; stroke-linecap: butt;" clip-path="url(#cpNDAuNzkyMXwzNTQuNTIxfDE4My4zOTZ8NS40Nzk0NQ==)"/>
<polyline points="226.18,183.40 226.18,5.48 " style="stroke-width: 1.07; stroke: #FFFFFF; stroke-linecap: butt;" clip-path="url(#cpNDAuNzkyMXwzNTQuNTIxfDE4My4zOTZ8NS40Nzk0NQ==)"/>
<polyline points="283.22,183.40 283.22,5.48 " style="stroke-width: 1.07; stroke: #FFFFFF; stroke-linecap: butt;" clip-path="url(#cpNDAuNzkyMXwzNTQuNTIxfDE4My4zOTZ8NS40Nzk0NQ==)"/>
<polyline points="340.26,183.40 340.26,5.48 " style="stroke-width: 1.07; stroke: #FFFFFF; stroke-linecap: butt;" clip-path="url(#cpNDAuNzkyMXwzNTQuNTIxfDE4My4zOTZ8NS40Nzk0NQ==)"/>
<polyline points="67.97,175.29 68.55,175.29 69.12,175.28 69.70,175.28 70.27,175.27 70.84,175.27 71.42,175.26 71.99,175.26 72.57,175.25 73.14,175.24 73.72,175.23 74.29,175.22 74.87,175.21 75.44,175.19 76.02,175.18 76.59,175.16 77.16,175.14 77.74,175.12 78.31,175.10 78.89,175.08 79.46,175.05 80.04,175.02 80.61,174.99 81.19,174.96 81.76,174.93 82.34,174.89 82.91,174.85 83.48,174.81 84.06,174.76 84.63,174.72 85.21,174.67 85.78,174.62 86.36,174.57 86.93,174.51 87.51,174.45 88.08,174.39 88.66,174.33 89.23,174.27 89.80,174.21 90.38,174.14 90.95,174.08 91.53,174.01 92.10,173.94 92.68,173.87 93.25,173.80 93.83,173.73 94.40,173.67 94.98,173.60 95.55,173.53 96.12,173.46 96.70,173.39 97.27,173.32 97.85,173.26 98.42,173.19 99.00,173.12 99.57,173.06 100.15,172.99 100.72,172.93 101.30,172.87 101.87,172.80 102.44,172.74 103.02,172.68 103.59,172.62 104.17,172.55 104.74,172.49 105.32,172.43 105.89,172.37 106.47,172.30 107.04,172.24 107.62,172.17 108.19,172.11 108.76,172.04 109.34,171.98 109.91,171.91 110.49,171.84 111.06,171.77 111.64,171.70 112.21,171.63 112.79,171.55 113.36,171.48 113.94,171.40 114.51,171.33 115.08,171.25 115.66,171.17 116.23,171.09 116.81,171.01 117.38,170.93 117.96,170.84 118.53,170.75 119.11,170.66 119.68,170.57 120.26,170.47 120.83,170.36 121.40,170.26 121.98,170.14 122.55,170.02 123.13,169.89 123.70,169.75 124.28,169.61 124.85,169.45 125.43,169.28 126.00,169.09 126.58,168.90 127.15,168.68 127.72,168.45 128.30,168.19 128.87,167.92 129.45,167.63 130.02,167.31 130.60,166.97 131.17,166.60 131.75,166.21 132.32,165.79 132.90,165.34 133.47,164.86 134.04,164.35 134.62,163.81 135.19,163.23 135.77,162.63 136.34,161.99 136.92,161.33 137.49,160.63 138.07,159.89 138.64,159.13 139.22,158.35 139.79,157.53 140.36,156.68 140.94,155.81 141.51,154.91 142.09,154.00 142.66,153.05 143.24,152.09 143.81,151.12 144.39,150.13 144.96,149.12 145.54,148.11 146.11,147.09 146.68,146.06 147.26,145.02 147.83,143.99 148.41,142.95 148.98,141.92 149.56,140.89 150.13,139.87 150.71,138.85 151.28,137.84 151.86,136.84 152.43,135.85 153.00,134.88 153.58,133.91 154.15,132.96 154.73,132.02 155.30,131.09 155.88,130.17 156.45,129.27 157.03,128.37 157.60,127.48 158.18,126.60 158.75,125.73 159.32,124.86 159.90,124.00 160.47,123.13 161.05,122.26 161.62,121.39 162.20,120.51 162.77,119.62 163.35,118.72 163.92,117.81 164.50,116.88 165.07,115.93 165.64,114.96 166.22,113.96 166.79,112.95 167.37,111.90 167.94,110.82 168.52,109.70 169.09,108.56 169.67,107.39 170.24,106.17 170.82,104.92 171.39,103.63 171.96,102.31 172.54,100.94 173.11,99.54 173.69,98.11 174.26,96.64 174.84,95.13 175.41,93.59 175.99,92.02 176.56,90.42 177.14,88.80 177.71,87.14 178.29,85.47 178.86,83.78 179.43,82.07 180.01,80.35 180.58,78.62 181.16,76.88 181.73,75.14 182.31,73.39 182.88,71.66 183.46,69.92 184.03,68.20 184.61,66.48 185.18,64.78 185.75,63.10 186.33,61.44 186.90,59.79 187.48,58.17 188.05,56.58 188.63,55.01 189.20,53.46 189.78,51.94 190.35,50.45 190.93,48.99 191.50,47.55 192.07,46.14 192.65,44.76 193.22,43.41 193.80,42.08 194.37,40.77 194.95,39.49 195.52,38.24 196.10,37.00 196.67,35.78 197.25,34.59 197.82,33.42 198.39,32.26 198.97,31.13 199.54,30.01 200.12,28.91 200.69,27.84 201.27,26.78 201.84,25.75 202.42,24.73 202.99,23.75 203.57,22.79 204.14,21.85 204.71,20.94 205.29,20.08 205.86,19.26 206.44,18.47 207.01,17.72 207.59,17.03 208.16,16.39 208.74,15.80 209.31,15.27 209.89,14.81 210.46,14.42 211.03,14.10 211.61,13.84 212.18,13.66 212.76,13.57 213.33,13.57 213.91,13.63 214.48,13.78 215.06,14.01 215.63,14.33 216.21,14.73 216.78,15.20 217.35,15.75 217.93,16.39 218.50,17.08 219.08,17.84 219.65,18.65 220.23,19.53 220.80,20.45 221.38,21.41 221.95,22.40 222.53,23.42 223.10,24.45 223.67,25.49 224.25,26.53 224.82,27.57 225.40,28.58 225.97,29.57 226.55,30.53 227.12,31.46 227.70,32.33 228.27,33.14 228.85,33.90 229.42,34.60 229.99,35.23 230.57,35.77 231.14,36.24 231.72,36.64 232.29,36.96 232.87,37.17 233.44,37.31 234.02,37.38 234.59,37.36 235.17,37.26 235.74,37.08 236.31,36.83 236.89,36.52 237.46,36.14 238.04,35.69 238.61,35.20 239.19,34.66 239.76,34.08 240.34,33.46 240.91,32.81 241.49,32.14 242.06,31.46 242.63,30.77 243.21,30.08 243.78,29.40 244.36,28.73 244.93,28.07 245.51,27.45 246.08,26.85 246.66,26.29 247.23,25.76 247.81,25.29 248.38,24.87 248.95,24.49 249.53,24.17 250.10,23.90 250.68,23.71 251.25,23.57 251.83,23.48 252.40,23.46 252.98,23.52 253.55,23.63 254.13,23.80 254.70,24.03 255.27,24.32 255.85,24.68 256.42,25.09 257.00,25.54 257.57,26.05 258.15,26.62 258.72,27.23 259.30,27.88 259.87,28.56 260.45,29.30 261.02,30.06 261.59,30.86 262.17,31.69 262.74,32.55 263.32,33.43 263.89,34.34 264.47,35.28 265.04,36.23 265.62,37.21 266.19,38.21 266.77,39.23 267.34,40.26 267.91,41.32 268.49,42.41 269.06,43.51 269.64,44.63 270.21,45.78 270.79,46.96 271.36,48.16 271.94,49.39 272.51,50.65 273.09,51.94 273.66,53.27 274.23,54.63 274.81,56.02 275.38,57.45 275.96,58.92 276.53,60.43 277.11,61.97 277.68,63.55 278.26,65.18 278.83,66.85 279.41,68.54 279.98,70.27 280.55,72.05 281.13,73.85 281.70,75.69 282.28,77.55 282.85,79.44 283.43,81.35 284.00,83.28 284.58,85.23 285.15,87.18 285.73,89.15 286.30,91.13 286.87,93.10 287.45,95.08 288.02,97.05 288.60,99.00 289.17,100.95 289.75,102.88 290.32,104.79 290.90,106.68 291.47,108.54 292.05,110.38 292.62,112.19 293.19,113.97 293.77,115.71 294.34,117.43 294.92,119.11 295.49,120.76 296.07,122.36 296.64,123.94 297.22,125.49 297.79,126.99 298.37,128.46 298.94,129.90 299.51,131.32 300.09,132.70 300.66,134.04 301.24,135.36 301.81,136.66 302.39,137.93 302.96,139.17 303.54,140.39 304.11,141.59 304.69,142.76 305.26,143.92 305.83,145.05 306.41,146.16 306.98,147.26 307.56,148.33 308.13,149.38 308.71,150.42 309.28,151.44 309.86,152.44 310.43,153.41 311.01,154.37 311.58,155.30 312.15,156.22 312.73,157.11 313.30,157.97 313.88,158.81 314.45,159.63 315.03,160.43 315.60,161.20 316.18,161.94 316.75,162.65 317.33,163.34 317.90,164.00 318.47,164.63 319.05,165.23 319.62,165.81 320.20,166.36 320.77,166.88 321.35,167.37 321.92,167.84 322.50,168.28 323.07,168.70 323.65,169.09 324.22,169.45 324.79,169.80 325.37,170.13 325.94,170.43 326.52,170.71 327.09,170.98 327.67,171.23 328.24,171.46 328.82,171.68 329.39,171.89 329.97,172.08 330.54,172.26 331.11,172.43 331.69,172.58 332.26,172.74 332.84,172.88 333.41,173.01 333.99,173.14 334.56,173.26 335.14,173.37 335.71,173.48 336.29,173.59 336.86,173.69 337.43,173.78 338.01,173.87 338.58,173.96 339.16,174.04 339.73,174.12 " style="stroke-width: 1.07; stroke-linecap: butt;" clip-path="url(#cpNDAuNzkyMXwzNTQuNTIxfDE4My4zOTZ8NS40Nzk0NQ==)"/>
<polyline points="254.70,24.03 255.27,24.32 255.85,24.68 256.42,25.09 257.00,25.54 257.57,26.05 258.15,26.62 258.72,27.23 259.30,27.88 259.87,28.56 260.45,29.30 261.02,30.06 261.59,30.86 262.17,31.69 262.74,32.55 263.32,33.43 263.89,34.34 264.47,35.28 265.04,36.23 265.62,37.21 266.19,38.21 266.77,39.23 267.34,40.26 267.91,41.32 268.49,42.41 269.06,43.51 269.64,44.63 270.21,45.78 270.79,46.96 271.36,48.16 271.94,49.39 272.51,50.65 273.09,51.94 273.66,53.27 274.23,54.63 274.81,56.02 275.38,57.45 275.96,58.92 276.53,60.43 277.11,61.97 277.68,63.55 278.26,65.18 278.83,66.85 279.41,68.54 279.98,70.27 280.55,72.05 281.13,73.85 281.70,75.69 282.28,77.55 282.85,79.44 282.85,175.31 282.28,175.31 281.70,175.31 281.13,175.31 280.55,175.31 279.98,175.31 279.41,175.31 278.83,175.31 278.26,175.31 277.68,175.31 277.11,175.31 276.53,175.31 275.96,175.31 275.38,175.31 274.81,175.31 274.23,175.31 273.66,175.31 273.09,175.31 272.51,175.31 271.94,175.31 271.36,175.31 270.79,175.31 270.21,175.31 269.64,175.31 269.06,175.31 268.49,175.31 267.91,175.31 267.34,175.31 266.77,175.31 266.19,175.31 265.62,175.31 265.04,175.31 264.47,175.31 263.89,175.31 263.32,175.31 262.74,175.31 262.17,175.31 261.59,175.31 261.02,175.31 260.45,175.31 259.87,175.31 259.30,175.31 258.72,175.31 258.15,175.31 257.57,175.31 257.00,175.31 256.42,175.31 255.85,175.31 255.27,175.31 254.70,175.31 " style="stroke-width: 1.07; stroke: none; fill: #FF7F24;" clip-path="url(#cpNDAuNzkyMXwzNTQuNTIxfDE4My4zOTZ8NS40Nzk0NQ==)"/>
<circle cx="254.70" cy="175.31" r="3.56pt" style="stroke-width: 0.71; fill: #000000;" clip-path="url(#cpNDAuNzkyMXwzNTQuNTIxfDE4My4zOTZ8NS40Nzk0NQ==)"/>
<circle cx="283.22" cy="175.31" r="3.56pt" style="stroke-width: 0.71; fill: #000000;" clip-path="url(#cpNDAuNzkyMXwzNTQuNTIxfDE4My4zOTZ8NS40Nzk0NQ==)"/>
<g clip-path="url(#cpNDAuNzkyMXwzNTQuNTIxfDE4My4zOTZ8NS40Nzk0NQ==)"><text x="251.63" y="169.59" style="font-size: 11.04px; fill: #0000FF; font-family: Arial;" textLength="6.14px" lengthAdjust="spacingAndGlyphs">a</text></g>
<g clip-path="url(#cpNDAuNzkyMXwzNTQuNTIxfDE4My4zOTZ8NS40Nzk0NQ==)"><text x="280.15" y="169.59" style="font-size: 11.04px; fill: #0000FF; font-family: Arial;" textLength="6.14px" lengthAdjust="spacingAndGlyphs">b</text></g>
<defs>
  <clipPath id="cpMHwzNjB8MjE2fDA=">
    <rect x="0.00" y="0.00" width="360.00" height="216.00"/>
  </clipPath>
</defs>
<g clip-path="url(#cpMHwzNjB8MjE2fDA=)"><text x="18.73" y="178.46" style="font-size: 8.80px; fill: #4D4D4D; font-family: Arial;" textLength="17.13px" lengthAdjust="spacingAndGlyphs">0.00</text></g>
<g clip-path="url(#cpMHwzNjB8MjE2fDA=)"><text x="18.73" y="146.23" style="font-size: 8.80px; fill: #4D4D4D; font-family: Arial;" textLength="17.13px" lengthAdjust="spacingAndGlyphs">0.01</text></g>
<g clip-path="url(#cpMHwzNjB8MjE2fDA=)"><text x="18.73" y="113.99" style="font-size: 8.80px; fill: #4D4D4D; font-family: Arial;" textLength="17.13px" lengthAdjust="spacingAndGlyphs">0.02</text></g>
<g clip-path="url(#cpMHwzNjB8MjE2fDA=)"><text x="18.73" y="81.76" style="font-size: 8.80px; fill: #4D4D4D; font-family: Arial;" textLength="17.13px" lengthAdjust="spacingAndGlyphs">0.03</text></g>
<g clip-path="url(#cpMHwzNjB8MjE2fDA=)"><text x="18.73" y="49.53" style="font-size: 8.80px; fill: #4D4D4D; font-family: Arial;" textLength="17.13px" lengthAdjust="spacingAndGlyphs">0.04</text></g>
<g clip-path="url(#cpMHwzNjB8MjE2fDA=)"><text x="18.73" y="17.30" style="font-size: 8.80px; fill: #4D4D4D; font-family: Arial;" textLength="17.13px" lengthAdjust="spacingAndGlyphs">0.05</text></g>
<polyline points="38.05,175.31 40.79,175.31 " style="stroke-width: 1.07; stroke: #333333; stroke-linecap: butt;" clip-path="url(#cpMHwzNjB8MjE2fDA=)"/>
<polyline points="38.05,143.08 40.79,143.08 " style="stroke-width: 1.07; stroke: #333333; stroke-linecap: butt;" clip-path="url(#cpMHwzNjB8MjE2fDA=)"/>
<polyline points="38.05,110.85 40.79,110.85 " style="stroke-width: 1.07; stroke: #333333; stroke-linecap: butt;" clip-path="url(#cpMHwzNjB8MjE2fDA=)"/>
<polyline points="38.05,78.61 40.79,78.61 " style="stroke-width: 1.07; stroke: #333333; stroke-linecap: butt;" clip-path="url(#cpMHwzNjB8MjE2fDA=)"/>
<polyline points="38.05,46.38 40.79,46.38 " style="stroke-width: 1.07; stroke: #333333; stroke-linecap: butt;" clip-path="url(#cpMHwzNjB8MjE2fDA=)"/>
<polyline points="38.05,14.15 40.79,14.15 " style="stroke-width: 1.07; stroke: #333333; stroke-linecap: butt;" clip-path="url(#cpMHwzNjB8MjE2fDA=)"/>
<polyline points="55.05,186.14 55.05,183.40 " style="stroke-width: 1.07; stroke: #333333; stroke-linecap: butt;" clip-path="url(#cpMHwzNjB8MjE2fDA=)"/>
<polyline points="112.09,186.14 112.09,183.40 " style="stroke-width: 1.07; stroke: #333333; stroke-linecap: butt;" clip-path="url(#cpMHwzNjB8MjE2fDA=)"/>
<polyline points="169.14,186.14 169.14,183.40 " style="stroke-width: 1.07; stroke: #333333; stroke-linecap: butt;" clip-path="url(#cpMHwzNjB8MjE2fDA=)"/>
<polyline points="226.18,186.14 226.18,183.40 " style="stroke-width: 1.07; stroke: #333333; stroke-linecap: butt;" clip-path="url(#cpMHwzNjB8MjE2fDA=)"/>
<polyline points="283.22,186.14 283.22,183.40 " style="stroke-width: 1.07; stroke: #333333; stroke-linecap: butt;" clip-path="url(#cpMHwzNjB8MjE2fDA=)"/>
<polyline points="340.26,186.14 340.26,183.40 " style="stroke-width: 1.07; stroke: #333333; stroke-linecap: butt;" clip-path="url(#cpMHwzNjB8MjE2fDA=)"/>
<g clip-path="url(#cpMHwzNjB8MjE2fDA=)"><text x="50.16" y="194.63" style="font-size: 8.80px; fill: #4D4D4D; font-family: Arial;" textLength="9.79px" lengthAdjust="spacingAndGlyphs">30</text></g>
<g clip-path="url(#cpMHwzNjB8MjE2fDA=)"><text x="107.20" y="194.63" style="font-size: 8.80px; fill: #4D4D4D; font-family: Arial;" textLength="9.79px" lengthAdjust="spacingAndGlyphs">40</text></g>
<g clip-path="url(#cpMHwzNjB8MjE2fDA=)"><text x="164.24" y="194.63" style="font-size: 8.80px; fill: #4D4D4D; font-family: Arial;" textLength="9.79px" lengthAdjust="spacingAndGlyphs">50</text></g>
<g clip-path="url(#cpMHwzNjB8MjE2fDA=)"><text x="221.28" y="194.63" style="font-size: 8.80px; fill: #4D4D4D; font-family: Arial;" textLength="9.79px" lengthAdjust="spacingAndGlyphs">60</text></g>
<g clip-path="url(#cpMHwzNjB8MjE2fDA=)"><text x="278.32" y="194.63" style="font-size: 8.80px; fill: #4D4D4D; font-family: Arial;" textLength="9.79px" lengthAdjust="spacingAndGlyphs">70</text></g>
<g clip-path="url(#cpMHwzNjB8MjE2fDA=)"><text x="335.37" y="194.63" style="font-size: 8.80px; fill: #4D4D4D; font-family: Arial;" textLength="9.79px" lengthAdjust="spacingAndGlyphs">80</text></g>
<g clip-path="url(#cpMHwzNjB8MjE2fDA=)"><text x="194.91" y="207.88" style="font-size: 11.00px; font-family: Arial;" textLength="5.50px" lengthAdjust="spacingAndGlyphs">x</text></g>
<g clip-path="url(#cpMHwzNjB8MjE2fDA=)"><text transform="translate(13.35,97.19) rotate(-90)" style="font-size: 11.00px; font-family: Arial;" textLength="5.50px" lengthAdjust="spacingAndGlyphs">y</text></g>
</svg>